<?xml version="1.0" encoding="UTF-8"?><svg id="Layer_1" xmlns="http://www.w3.org/2000/svg" viewBox="0 0 2495.34 2380.12"><defs><style>.cls-1{fill:#e6e6e6;}</style></defs><path class="cls-1" d="M1695.27,98.28c-7.76,4.92-110.01,72.05-108.05,183.61,1.38,78.51,54.79,128.35,75.68,151.35,65.06,71.62,189.79,108.46,286.49,72.97,102.42-37.59,126.87-139.23,181.08-127.03,50.21,11.3,39.21,100.71,113.51,140.54,46.9,25.14,111.46,21.78,151.35-5.41,88.66-60.43,88.79-234.81,16.22-337.84-60.25-85.54-158.91-105.19-249.46-123.24-181.55-36.18-346.19-.34-466.81,45.04Z"/><path class="cls-1" d="M725.05,154.86c74.71,51.76,61.95,74.98,132.43,110.81,115.39,58.66,178.38,11.06,332.43,59.46,58.39,18.35,181.37,56.98,191.89,132.43,9.57,68.66-79.21,130.43-105.41,148.65-71.46,49.71-194.1,90.13-286.49,40.54-74.78-40.14-63.76-103.84-140.54-135.14-43.59-17.77-75-8.59-181.08,10.81-191.51,35.03-288.97,53.08-316.22,24.32-59.37-62.67,30.69-206.43-32.43-254.05-39.36-29.69-95.66,10.14-124.32-21.62-27.58-30.56-10.09-105.83,27.03-151.35,88.31-108.3,344.26-74.64,502.71,35.14Z"/><path class="cls-1" d="M1749.38,776.48c-39.09-8.26-67.43,127.3-151.35,135.14-60.97,5.69-86.49-62.06-132.43-51.35-78.82,18.37-110.99,242.84-62.16,267.57,33.39,16.9,82.66-70.69,145.95-54.05,59.33,15.6,58.86,103.83,102.7,108.11,49.16,4.8,104.84-100.8,124.32-189.19,21.32-96.67,7.32-208.96-27.03-216.22h0Z"/><path class="cls-1" d="M896.34,675.24c0,29.44-23.85,53.28-53.28,53.28H476.58c-29.43,0-53.28-23.84-53.28-53.28h0c0-29.43,23.85-53.28,53.28-53.28h366.48c29.43,0,53.28,23.84,53.28,53.28h0Z"/><path class="cls-1" d="M2213.22,668.96c-2.34-2.34-5.51-3.65-8.82-3.65l-112.05,.02,.02-112.1c0-3.31-1.31-6.48-3.65-8.82s-5.51-3.65-8.82-3.65l-101.39,.02c-6.88,0-12.47,5.58-12.47,12.47l-.02,112.1-112.06,.02c-6.89,0-12.47,5.58-12.47,12.47l-.02,101.43c0,3.31,1.31,6.48,3.65,8.82s5.51,3.65,8.82,3.65l112.05-.02-.02,112.09c0,3.31,1.31,6.48,3.65,8.82s5.51,3.65,8.82,3.65l101.39-.02c6.88,0,12.47-5.58,12.47-12.47l.02-112.1,112.06-.02c6.88,0,12.47-5.58,12.47-12.47l.02-101.43c0-3.31-1.31-6.48-3.65-8.82h0Z"/><path class="cls-1" d="M1487.22,592.7c-31.95,.54-73.9,20.25-81.08,54.05-9.17,43.14,44.63,79.27,51.35,83.78,52.05,34.96,134.32,34.67,151.35,2.7,20.8-39.03-46.86-141.82-121.62-140.54h0Z"/><path class="cls-1" d="M1143.97,838.65c-73.38-2.14-81.44,95.83-170.27,113.51-59.75,11.9-78.56-27.95-229.73-43.24-27-2.73-62.03-5.06-91.89,16.22-1.77,1.26-42.52,31.16-37.84,70.27,3.7,30.84,33.52,49.63,40.54,54.05,93.03,58.61,212.04-60.07,305.41-2.7,26.28,16.15,16.27,25.2,59.46,59.46,33.54,26.61,94.7,75.12,148.65,62.16,74.25-17.84,127.72-150.41,83.78-243.24-16.14-34.1-55.89-84.97-108.11-86.49h0Z"/><path class="cls-1" d="M849.38,1114.32c-45.11-16.13-86.5,34.13-129.73,10.81-18.49-9.97-26.11-27.36-40.54-24.32-12.39,2.61-21.83,18.61-21.62,32.43,.32,21.45,23.87,38.09,43.24,43.24,29.76,7.91,55.47-9.74,59.46-2.7,2.53,4.46-7.8,11.55-21.62,35.14-9.16,15.63-14.93,25.76-13.51,37.84,0,0,1.83,15.6,16.22,27.03,34.62,27.48,150.25-2.78,159.46-70.27,4.69-34.37-18.36-77.4-51.35-89.19h-.01Z"/><path class="cls-1" d="M1032.91,1457.58c-25.7,0-46.52,20.83-46.52,46.52s20.83,46.52,46.52,46.52,46.52-20.83,46.52-46.52-20.83-46.52-46.52-46.52Zm0-139.57c25.7,0,46.52-20.83,46.52-46.52s-20.83-46.52-46.52-46.52-46.52,20.83-46.52,46.52,20.83,46.52,46.52,46.52Zm139.57,34.89h-279.13c-12.84,0-23.26,10.42-23.26,23.26v23.26c0,12.84,10.42,23.26,23.26,23.26h279.13c12.84,0,23.26-10.42,23.26-23.26v-23.26c0-12.84-10.42-23.26-23.26-23.26Z"/><path class="cls-1" d="M779.11,1368.37c-27.39-10.34-63.33-5.49-86.49,16.22-20.42,19.14-23.87,44.81-24.32,48.65-8.77,73.21,96.47,95.48,121.62,191.89,19.82,75.98-32.97,110.29-2.7,159.46,32.85,53.36,134.61,77.25,175.68,35.14,25.09-25.73,24.24-72.74,10.81-105.41-22.52-54.78-69.5-42.67-102.7-94.59-37.99-59.42,6.54-101.83-37.84-191.89-21.9-44.44-43.22-55.37-54.05-59.46h0Z"/><path class="cls-1" d="M1722.26,1832.69c5.7,5.72,13.2,8.57,20.68,8.57s14.97-2.85,20.68-8.57l134.42-134.42,134.42,134.42c5.71,5.72,13.2,8.57,20.68,8.57s14.97-2.85,20.68-8.57c11.42-11.42,11.42-29.93,0-41.35l-134.42-134.42,127.53-127.53c11.42-11.42,11.42-29.94,0-41.35-11.42-11.42-29.93-11.42-41.35,0l-127.52,127.52-127.52-127.53c-11.42-11.42-29.94-11.42-41.35,0-11.42,11.42-11.42,29.94,0,41.35l127.52,127.53-134.41,134.42c-11.43,11.42-11.43,29.93,0,41.36h-.04Z"/><path class="cls-1" d="M1779.11,1254.86c-60.56,19.41-170.66,19.61-232.43-24.32-27.72-19.72-25.11-33.67-54.05-45.95-30.45-12.91-83.73-18.85-110.81,13.51-25.26,30.17-13.78,76.96,0,102.7,30.11,56.25,101.08,67.85,132.43,72.97,38.29,6.26,29.93-3.79,145.95-10.81,56.44-3.42,94.36-3.21,135.14-27.03,26.17-15.28,35.33-29.83,37.84-43.24,2.31-12.33,.1-29.57-10.81-37.84-13.48-10.21-34.9-2.68-43.24,0h-.02Z"/><path class="cls-1" d="M2146.68,1187.29c-37.34-83.72-8.81-116.81-43.24-151.35-31.38-31.48-95.18-44.24-140.54-13.51-47.29,32.03-56.29,98.97-37.84,140.54,21.99,49.56,69.83,33.42,108.11,91.89,33.31,50.89,16.09,92.15,54.05,116.22,19.29,12.23,46.78,16.19,67.57,5.41,39.34-20.41,35.7-83.81,35.14-91.89-2.79-39.6-21.47-48.48-43.24-97.3h-.01Z"/><path class="cls-1" d="M695.32,2171.51c-7.96-74.63,160.54-185.57,283.78-159.89,58.34,12.16,62.19,45.68,135.14,67.57,85.75,25.72,210.68,18.47,272.97-51.35,73.22-82.06,24.61-211,64.86-221.62,33.77-8.91,92.56,75.32,132.43,132.43,35.7,51.14,33.7,61.1,56.76,78.38,54.66,40.96,99.06,9.8,162.16,40.54,70.14,34.17,112.26,119.91,94.59,143.24-16.81,22.21-79.19-23.42-167.57-29.3-131.57-8.74-216.15,77.59-297.3,123.89-270.05,154.1-725.43-7.56-737.84-123.89h.02Z"/><path class="cls-1" d="M1295.32,1592.7c-42.18-11.03-106.89,13.33-132.43,70.27-22.72,50.65-5.65,107.43,29.73,140.54,6.7,6.27,45.04,42.15,86.49,32.43,60.98-14.3,51.84-109.28,116.22-132.43,47.03-16.91,70.56,27.06,137.84,13.51,36.1-7.27,89.66-32.08,100-72.97,15.56-61.49-70.11-145.54-148.65-181.08-56.44-25.54-90.21-17.43-127.03-56.76-34.17-36.5-37.57-78.19-59.46-78.38-22.29-.19-38.93,42.88-43.24,54.05-5.43,14.06-26.36,68.23-2.7,97.3,34.3,42.13,125.09-14.21,167.57,32.43,16.49,18.11,20.54,46.07,13.51,67.57-9.59,29.34-40.49,48.68-67.57,48.65-31.68-.03-37.43-26.55-70.27-35.14h-.01Z"/><path class="cls-1" d="M2362.89,1819.73c-44.89-15.59-105.15-7.21-145.95,24.32-50.02,38.66-36.83,85.88-75.68,100-51.1,18.58-90.86-57-172.97-43.24-10.66,1.79-45.34,7.59-62.16,35.14-19.96,32.66-1.75,74.51,0,78.38,22.91,50.69,74.85,49.74,170.27,102.7,84.68,47,72.87,63.9,118.92,78.38,76.65,24.11,205.62,7.56,259.46-89.19,57.85-103.95,2.85-253.59-91.89-286.49h0Z"/><path class="cls-1" d="M660.19,1868.37c-87.86,65.73-72.51,132.54-121.62,151.35-49.78,19.07-84.79-42.2-240.54-94.59-68.46-23.03-105.21-34.86-127.03-16.22-39.69,33.92-5.72,147.94,43.24,218.92,14.43,20.92,30.17,43.27,59.46,62.16,55.89,36.06,137.82,44.53,197.3,10.81,59.63-33.8,41.57-78.74,113.51-127.03,40.77-27.36,51.83-16.46,118.92-54.05,59.89-33.56,96.4-54.02,100-89.19,3.93-38.39-32.43-83.75-72.97-89.19-14.48-1.94-34.8,.49-70.27,27.03h0Z"/><path class="cls-1" d="M2362.74,765.74c-39.85,17.87-23.91,74.85-65.52,102.37-31.12,20.58-52.85-2.81-94.18,20.47-21.66,12.2-54.65,40.57-49.14,69.61,5.34,28.14,45.42,49.54,77.8,45.04,44.86-6.23,51.53-58.9,94.18-61.42,25.21-1.49,52.87,15.14,59.93,36.45,10.23,30.85-24.33,66.55-43.55,86.39-45,46.48-73.71,39.26-90.09,73.71-14.18,29.82-11.25,74.33,16.38,102.37,1.22,1.24,31.06,30.61,69.61,24.57,42.08-6.59,64.53-50.67,81.9-85.99,12.27-24.96,33.52-75.77,36.85-208.84,2.75-109.93,3.6-177.28-36.85-200.65-15.54-8.98-38.8-12.4-57.33-4.09Z"/><path class="cls-1" d="M2359.27,1418.46c-60.44-12.46-108.3,33.97-115.2,40.66-25.29,24.54-59.62,75.79-42.92,110.68,16.99,35.49,69.58,18.16,106.16,67.76,15.43,20.93,13.49,34.07,33.88,51.95,3.18,2.79,36.62,31.46,65.51,24.85,46.82-10.71,76-112.77,49.69-192-5.07-15.28-29.9-90.05-97.13-103.91Z"/><path class="cls-1" d="M232.6,376.01c-22.1-11.2-67.39,32.23-91.48,64.38-10.36,13.82-75.15,100.26-44.05,169.41,22.07,49.08,72.76,45.67,81.32,88.09,10.31,51.09-56.89,87.42-44.05,111.81,15.33,29.13,134.84,22.37,159.25-30.49,24.63-53.34-73.51-97.39-64.38-203.29,3.02-35.04,16.95-67.11,16.94-138.92,0-45.53-5.6-56.96-13.55-60.99Z"/><path class="cls-1" d="M1499.79,67.68c-14.39-40.43-98.43-28.84-443.86-10.16-64.68,3.5-138.88,7.26-149.08,40.66-6.34,20.77,14.71,44.37,23.72,54.21,81.17,88.76,244.34,64.3,379.48,44.05,105.88-15.87,156.79-38.47,179.58-81.32,6.9-12.98,16.2-30.47,10.16-47.44Z"/><path class="cls-1" d="M459.61,809.71c-67.69-5.05-84.93,126.18-203.29,155.86-59.74,14.98-88.5-10.14-121.98,16.94-50.28,40.68-52.61,151.74-10.16,179.58,49.24,32.29,118.53-73.78,237.18-54.21,71.65,11.82,90.35,57.75,132.14,44.05,55.3-18.14,80.08-117.41,67.76-193.13-9.46-58.14-47.73-145.06-101.65-149.08Z"/><path class="cls-1" d="M395.23,1307.78c-63.9,.62-80.95-82.1-142.31-81.32-55.85,.71-93.98,69.92-98.26,77.93-6.63,12.41-35.38,66.18-13.55,105.04,25.33,45.1,103.22,42.45,155.86,40.66,85.37-2.9,93.95-26.53,288-88.09,62.16-19.72,89.17-26.14,98.26-50.82,17.11-46.43-41.02-125.4-91.48-125.36-26.95,.02-32.67,22.55-101.65,71.15-47.87,33.73-71.81,50.6-94.87,50.82Z"/><path class="cls-1" d="M496.88,1521.23c-27.6-21.07-73.6-20.34-101.65,0-44.47,32.24-38.21,109.7-13.55,155.86,27.12,50.78,78.53,67.51,162.63,94.87,63.62,20.7,132.88,43.24,152.47,16.94,18.48-24.81-9.72-89.76-54.21-121.98-39.64-28.71-64.68-11.49-94.87-40.66-37.25-36-15.51-78.08-50.82-105.04Z"/><path class="cls-1" d="M219.04,1602.55c-50.2-15.72-105.53,10.84-128.75,57.6-24.29,48.9-8.79,110.48,33.88,138.92,54.49,36.32,138.84,8.95,162.63-54.21,20.68-54.88-9.19-123.97-67.76-142.31Z"/></svg>